<?xml version="1.0" encoding="UTF-8" standalone="no"?>
<!DOCTYPE svg PUBLIC "-//W3C//DTD SVG 1.1//EN"
 "http://www.w3.org/Graphics/SVG/1.1/DTD/svg11.dtd">
<!-- Generated by graphviz version 2.40.1 (20161225.0304)
 -->
<!-- Title: G Pages: 1 -->
<svg width="187pt" height="219pt"
 viewBox="0.00 0.00 187.02 219.00" xmlns="http://www.w3.org/2000/svg" xmlns:xlink="http://www.w3.org/1999/xlink">
<g id="graph0" class="graph" transform="scale(1 1) rotate(0) translate(4 215)">
<title>G</title>
<polygon fill="#ffffff" stroke="transparent" points="-4,4 -4,-215 183.0161,-215 183.0161,4 -4,4"/>
<g id="clust1" class="cluster">
<title>cluster_Global</title>
<path fill="none" stroke="#c0c0c0" d="M20,-8C20,-8 159.0161,-8 159.0161,-8 165.0161,-8 171.0161,-14 171.0161,-20 171.0161,-20 171.0161,-191 171.0161,-191 171.0161,-197 165.0161,-203 159.0161,-203 159.0161,-203 20,-203 20,-203 14,-203 8,-197 8,-191 8,-191 8,-20 8,-20 8,-14 14,-8 20,-8"/>
<text text-anchor="middle" x="89.5081" y="-190.2" font-family="Times,serif" font-size="11.00" fill="#c0c0c0">Global</text>
</g>
<g id="clust2" class="cluster">
<title>cluster_\thedataist</title>
<path fill="none" stroke="#c0c0c0" d="M28,-16C28,-16 151.0161,-16 151.0161,-16 157.0161,-16 163.0161,-22 163.0161,-28 163.0161,-28 163.0161,-164 163.0161,-164 163.0161,-170 157.0161,-176 151.0161,-176 151.0161,-176 28,-176 28,-176 22,-176 16,-170 16,-164 16,-164 16,-28 16,-28 16,-22 22,-16 28,-16"/>
<text text-anchor="middle" x="89.5081" y="-163.2" font-family="Times,serif" font-size="11.00" fill="#c0c0c0">thedataist</text>
</g>
<g id="clust3" class="cluster">
<title>cluster_\thedataist\Drill</title>
<path fill="none" stroke="#c0c0c0" d="M36,-24C36,-24 143.0161,-24 143.0161,-24 149.0161,-24 155.0161,-30 155.0161,-36 155.0161,-36 155.0161,-137 155.0161,-137 155.0161,-143 149.0161,-149 143.0161,-149 143.0161,-149 36,-149 36,-149 30,-149 24,-143 24,-137 24,-137 24,-36 24,-36 24,-30 30,-24 36,-24"/>
<text text-anchor="middle" x="89.5081" y="-136.2" font-family="Times,serif" font-size="11.00" fill="#c0c0c0">Drill</text>
</g>
<!-- \\thedataist\\Drill\\DrillConnection -->
<g id="node1" class="node">
<title>\\thedataist\\Drill\\DrillConnection</title>
<polygon fill="none" stroke="#000000" points="147.0242,-122 31.9919,-122 31.9919,-86 147.0242,-86 147.0242,-122"/>
<text text-anchor="middle" x="89.5081" y="-100.7" font-family="Courier,monospace" font-size="11.00" fill="#000000">DrillConnection</text>
</g>
<!-- \\thedataist\\Drill\\Result -->
<g id="node2" class="node">
<title>\\thedataist\\Drill\\Result</title>
<polygon fill="none" stroke="#000000" points="117.1159,-68 61.9002,-68 61.9002,-32 117.1159,-32 117.1159,-68"/>
<text text-anchor="middle" x="89.5081" y="-46.7" font-family="Courier,monospace" font-size="11.00" fill="#000000">Result</text>
</g>
</g>
</svg>
